<?xml version="1.0" encoding="utf-8"?>
<!-- Generator: Adobe Illustrator 26.1.0, SVG Export Plug-In . SVG Version: 6.00 Build 0)  -->
<svg version="1.1" id="Capa_1" xmlns="http://www.w3.org/2000/svg" xmlns:xlink="http://www.w3.org/1999/xlink" x="0px" y="0px"
	 viewBox="0 0 69.3 69.3" style="enable-background:new 0 0 69.3 69.3;" xml:space="preserve">
<style type="text/css">
	.st0{fill:#87757E;}
	.st1{fill:none;stroke:#5F504A;stroke-width:1.9849;stroke-linejoin:round;}
	.st2{fill:none;stroke:#5F504A;stroke-width:1.8737;stroke-linejoin:round;}
</style>
<g id="Capa_2_00000139979951652312127330000008989351134791751871_">
	<g id="Capa_1-2">
		<path class="st0" d="M43.7,61.5l-0.1-5.9h2.1c1.3,3.8,3.7,6.5,8.1,6.5c3.7,0,5.7-1.7,5.7-4.6c0-3.4-3.1-4.3-7-5.8
			s-8.7-3.8-8.7-8.9c0-4.8,4.1-8.1,10.7-8.1c3-0.1,5.9,0.8,8.3,2.4v5.8h-1.9c-1-3.7-3-6.3-7.1-6.3c-3.2,0-4.8,1.8-4.8,4.1
			c0,2.6,2.3,4,6.1,5.4c4,1.5,10.2,3.5,10.2,9.3c0,5.1-4.8,8.7-11.8,8.7C49.9,64.1,46.5,63.2,43.7,61.5z"/>
		<path class="st0" d="M27.8,19.9c0-1.3-0.2-2.4-0.5-3.7c-0.5-3.5-3.5-5.9-7-5.8c-4.2,0-7.3,2.6-9.8,5.8H9.7l1.6-5.1l-1.2-1.2
			c-2.7,2-5.8,3.1-9.2,3.5v1.2c3.5-0.2,4,1,4,3.3V33c0,2.7-1.5,2.8-4,3.3v1.4h13.6v-1.3c-2.2-0.5-3.8-0.6-3.8-3.3V18.2
			c1.5-2.3,4-3.7,6.8-3.8c2.9,0,4.5,2.2,4.5,5.8v13c0,2.7-1.5,2.8-4.1,3.3v1.4h13.9v-1.4c-2.4-0.5-4-0.6-4-3.3L27.8,19.9"/>
		<path class="st0" d="M44.8,33.1V19.7c0-4.5-1.7-9.3-7.6-9.3c-2.4,0-4.8,0.9-6.5,2.6c-1.2,1-1.9,2.6-1.9,4.1l0,0
			c1.4-1.6,3.5-2.6,5.6-2.7c3,0,4.5,2.2,4.5,5.8v13c0,2.7-1.5,2.8-4,3.3v1.4h13.7v-1.4C46.3,35.9,44.8,35.6,44.8,33.1z"/>
		<path class="st1" d="M3.8,65.5c0.1-9.6,7.9-17.2,17.5-17.1c9.6-0.1,17.4,7.6,17.5,17.1"/>
		<path class="st2" d="M69.3,22.3c-5.9,4.1-14,2.7-18.1-3.3l0,0C47,13.2,48.4,5.1,54.2,0.9"/>
	</g>
</g>
</svg>
