<?xml version="1.0" encoding="utf-8"?>
<!-- Generator: Adobe Illustrator 26.1.0, SVG Export Plug-In . SVG Version: 6.00 Build 0)  -->
<svg version="1.1" id="Capa_1" xmlns="http://www.w3.org/2000/svg" xmlns:xlink="http://www.w3.org/1999/xlink" x="0px" y="0px"
	 viewBox="0 0 71.7 71.7" style="enable-background:new 0 0 71.7 71.7;" xml:space="preserve">
<style type="text/css">
	.st0{fill:#E9E9EA;stroke:#87757E;stroke-width:4;stroke-linecap:round;stroke-linejoin:round;}
	.st1{fill:none;stroke:#5F504A;stroke-width:3;stroke-linecap:round;stroke-linejoin:round;}
	.st2{fill:#5F504A;}
</style>
<g id="Capa_2_00000135688911717722725710000008114817723346779806_">
	<g id="OBJECTS">
		<path class="st0" d="M14.6,2H57c7,0,12.6,5.6,12.6,12.6V57c0,7-5.6,12.6-12.6,12.6H14.6C7.6,69.7,2,64,2,57V14.6
			C2,7.6,7.6,2,14.6,2z"/>
		<path class="st1" d="M25.8,52.6l0.6,0.4c9.5,5.6,21.6,2.4,27.2-7s2.4-21.6-7-27.2s-21.6-2.4-27.2,7c-3.8,6.5-3.7,14.7,0.5,21
			l0.4,0.6l-2.5,8.2L25.8,52.6z"/>
		<path class="st2" d="M28.1,24.3c-0.5,0.2-1,0.6-1.4,1c-1.2,1.2-1.9,2.8-1.9,4.4c-0.1,2.1,0.7,4.3,2.5,7.1c3,4.7,6.1,7.4,10.1,9.1
			c1.4,0.6,2.8,1.1,4.3,1.4c1,0.1,1.9-0.1,2.8-0.4c0.8-0.3,1.6-0.8,2.2-1.5c0.8-1.1,1.3-2.4,1.3-3.7c0-0.5,0-0.6-0.2-0.8
			c-1.7-1.1-3.6-2.1-5.5-2.8c-0.5-0.1-0.7,0.1-1.5,1c-1.3,1.4-1.6,1.8-1.9,1.8c-1-0.4-1.9-0.8-2.8-1.4c-2.1-1.4-3.8-3.3-5-5.5
			c-0.1-0.1-0.1-0.3-0.2-0.4c0.1-0.2,0.3-0.4,0.5-0.6c0.5-0.5,0.9-1.1,1.2-1.8c0.3-0.8,0.3-1-0.1-2.2c-0.6-1.7-0.8-2.3-1.2-3.2
			s-0.6-1.4-1-1.5C29.8,24.2,28.9,24.2,28.1,24.3z"/>
	</g>
</g>
</svg>
