<svg xmlns="http://www.w3.org/2000/svg" viewBox="0 0 186.3 69.33"><defs><style>.cls-1{fill:#87757e;}.cls-2{fill:#5f504a;}.cls-3{fill:none;stroke:#5f504a;stroke-linejoin:round;stroke-width:2.52px;}</style></defs><g id="Capa_2" data-name="Capa 2"><g id="Capa_1-2" data-name="Capa 1"><path class="cls-1" d="M113.52,58.68V50.51c0-3.95-1.55-6.06-5.34-6.06-3.59,0-9.09,1.83-9.09,4.62a1.47,1.47,0,0,0,1.6,1.52c1.19,0,1.83-.88,2.87-3.51A1.51,1.51,0,0,1,105.11,46c3.19,0,4.63.88,4.63,4.19v7.61A6.42,6.42,0,0,1,105,60.4a2.76,2.76,0,0,1-3-2.87c0-1.6,1-2.76,3.91-3.59l1.2-.35a1.79,1.79,0,0,0,1.3-1.72h0a22.52,22.52,0,0,1-2.7.83c-4.43,1.24-7.7,2.27-7.7,5.7,0,2.67,2,4.23,4.79,4.23a10.42,10.42,0,0,0,7-3.27,3.32,3.32,0,0,0,3.19,3.27,8.76,8.76,0,0,0,3.58-2.43v-.92C114.84,60.28,113.52,59.92,113.52,58.68Z"/><path class="cls-1" d="M59.73,61.11l-.08-3.66h1.28c.76,2.35,2.27,4,5,4,2.24,0,3.51-1.07,3.51-2.79,0-2.11-1.91-2.71-4.34-3.63s-5.39-2.35-5.39-5.54c0-3,2.52-5,6.62-5A8.74,8.74,0,0,1,71.5,46l0,3.63h-1.2c-.64-2.23-1.87-3.87-4.35-3.87-2,0-3,1.12-3,2.52,0,1.63,1.4,2.47,3.71,3.34,2.47.92,6.26,2.16,6.26,5.75,0,3.15-2.95,5.38-7.3,5.38A10.78,10.78,0,0,1,59.73,61.11Z"/><path class="cls-1" d="M89.32,59.32V50.79c0-2.36-1-3.79-3.15-3.79a6.3,6.3,0,0,0-4.82,2.55v9.77c0,1.75,1,1.87,2.51,2.15v.88H74.65v-.88c1.59-.28,2.91-.4,2.91-2.15V40.54c0-1.44-.6-2.23-2.91-2.51v-.8A13.88,13.88,0,0,0,80.55,35l.8.75V48.16c1.67-2,3.82-3.71,6.81-3.71,4,0,5,2.83,5,6.14v8.73c0,1.75,1,1.87,2.63,2.15v.88H86.81v-.88C88.28,61.19,89.32,61.07,89.32,59.32Z"/><path class="cls-1" d="M131,44.45c-3.43,0-5.9,2.71-7,5h-.72l1.6-4.5-.8-.76a13.27,13.27,0,0,1-6.18,2.31v.8c2.51.28,2.83,1.08,2.83,2.51V66.22c0,1.87-.95,2-2.83,2.23v.88h9.81v-.88c-2.11-.28-3.19-.36-3.19-2.23V51.54c0-1.27,1.48-4.58,4.71-4.58,3.07,0,4.86,3,4.86,7.14,0,5-2.67,7.25-5.46,7.25h-.25a1.24,1.24,0,0,0-1.31,1.25h0a10.45,10.45,0,0,0,1.4.11,9.31,9.31,0,0,0,9.57-9.77C138.05,47.56,134.62,44.45,131,44.45Z"/><path class="cls-1" d="M143.07,59.32V49.79c0-1.43-.32-2.23-2.63-2.51v-.8A12,12,0,0,0,146,44.17l.84.76V59.32c0,1.75,1,1.87,2.63,2.15v.88h-9.05v-.88C142,61.19,143.07,61.07,143.07,59.32Z"/><path class="cls-1" d="M154.12,59.32V49.75c0-1.44-.32-2.23-2.83-2.47v-.8a13.31,13.31,0,0,0,6.18-2.31l.8.76-1.12,4.78h1c1.55-3.35,3.15-5.54,5.78-5.54a3.6,3.6,0,0,1,1.63.32v3.78a6,6,0,0,0-2.55-.51c-3.27,0-5.06,2.47-5.06,5.58v6c0,1.75,1,1.87,3,2.15v.88h-9.57v-.88C153.16,61.19,154.12,61.07,154.12,59.32Z"/><path class="cls-1" d="M167.52,53.7c0-5.86,4.66-9.25,9.61-9.25s9.17,3.39,9.17,9c0,5.86-4.67,9.25-9.61,9.25S167.52,59.32,167.52,53.7Zm9.69,7.69c2.51,0,4.94-2.19,4.94-7.13,0-4.63-2.23-8.5-5.54-8.5-2.51,0-5,2.2-5,7.14C171.66,57.53,173.9,61.39,177.21,61.39Z"/><path class="cls-1" d="M17.58,16.65a13.78,13.78,0,0,0-.28-2.43,4.42,4.42,0,0,0-4.58-3.82c-2.75,0-4.79,1.71-6.38,3.82H5.7l1.08-3.35L6,10.12a12.88,12.88,0,0,1-6,2.31v.8c2.31-.12,2.63.67,2.63,2.11v9.93c0,1.75-1,1.87-2.63,2.15v.88H8.93v-.88c-1.47-.28-2.51-.4-2.51-2.15V15.54A5.61,5.61,0,0,1,10.85,13c1.91,0,3,1.43,3,3.79v8.53c0,1.75-1,1.87-2.68,2.15v.88h9.06v-.88c-1.64-.28-2.6-.4-2.6-2.15V16.65"/><path class="cls-1" d="M28.75,25.27V16.54c0-2.95-1.16-6.14-4.95-6.14a6.39,6.39,0,0,0-4.3,1.65,3.55,3.55,0,0,0-1.19,2.68h0A5,5,0,0,1,22,13c2,0,3,1.43,3,3.79v8.53c0,1.75-1,1.87-2.63,2.15v.88h9.05v-.88C29.71,27.14,28.75,27,28.75,25.27Z"/><path class="cls-1" d="M35.81,25.27V15.74c0-1.44-.32-2.23-2.63-2.51v-.8a12,12,0,0,0,5.58-2.31l.84.75v14.4c0,1.75,1,1.87,2.63,2.15v.88h-9v-.88C34.77,27.14,35.81,27,35.81,25.27Z"/><path class="cls-1" d="M43.19,34.64c2.39-.84,3.43-2.23,3.43-5.9v-13c0-1.44-.32-2.23-2.64-2.51v-.8a13.6,13.6,0,0,0,5.59-2.31l.83.75V29c0,4.74-4.22,6.3-7.21,6.7A1,1,0,0,1,43.19,34.64Z"/><path class="cls-1" d="M70.26,24.63V16.46c0-4-1.55-6.06-5.34-6.06-3.59,0-9.09,1.83-9.09,4.62a1.46,1.46,0,0,0,1.59,1.52c1.2,0,1.84-.88,2.87-3.51a1.52,1.52,0,0,1,1.56-1.12c3.19,0,4.62.88,4.62,4.19v7.61a6.39,6.39,0,0,1-4.78,2.63,2.75,2.75,0,0,1-3-2.87c0-1.59,1-2.75,3.9-3.58l1.2-.35a1.8,1.8,0,0,0,1.31-1.72h0a25.22,25.22,0,0,1-2.7.83c-4.43,1.24-7.7,2.27-7.7,5.7,0,2.67,2,4.23,4.78,4.23a10.42,10.42,0,0,0,7-3.27,3.33,3.33,0,0,0,3.19,3.27,8.79,8.79,0,0,0,3.59-2.43v-.92C71.58,26.23,70.26,25.87,70.26,24.63Z"/><path class="cls-1" d="M77.16,25.27V6.49c0-1.44-.6-2.23-2.91-2.51v-.8A13.83,13.83,0,0,0,80.15.91l.8.75V25.27c0,1.75,1.31,1.87,2.91,2.15v.88H74.25v-.88C75.84,27.14,77.16,27,77.16,25.27Z"/><path class="cls-2" d="M37.44,1.62a2.39,2.39,0,0,1,2.4,2.32,2.4,2.4,0,0,1-4.79,0A2.39,2.39,0,0,1,37.44,1.62Z"/><path class="cls-2" d="M48.29,1.62a2.38,2.38,0,0,1,2.39,2.32,2.39,2.39,0,0,1-4.78,0A2.38,2.38,0,0,1,48.29,1.62Z"/><path class="cls-2" d="M144.71,35.68A2.31,2.31,0,1,1,142.32,38,2.38,2.38,0,0,1,144.71,35.68Z"/><path class="cls-3" d="M10.09,61.39A17.48,17.48,0,0,1,27.73,44.08,17.48,17.48,0,0,1,45.37,61.39"/><path class="cls-3" d="M134.17,25.84a17.48,17.48,0,0,1-24.72-.23A17.49,17.49,0,0,1,109.22.89"/></g></g></svg>