<?xml version="1.0" encoding="utf-8"?>
<!-- Generator: Adobe Illustrator 26.1.0, SVG Export Plug-In . SVG Version: 6.00 Build 0)  -->
<svg version="1.1" id="Capa_1" xmlns="http://www.w3.org/2000/svg" xmlns:xlink="http://www.w3.org/1999/xlink" x="0px" y="0px"
	 viewBox="0 0 71.7 71.7" style="enable-background:new 0 0 71.7 71.7;" xml:space="preserve">
<style type="text/css">
	.st0{fill:#E9E9EA;stroke:#87757E;stroke-width:4;stroke-linecap:round;stroke-linejoin:round;}
	.st1{fill:#5F504A;}
</style>
<g id="Capa_2_00000102506004526147430050000000874390034459077008_">
	<g id="OBJECTS">
		<path class="st0" d="M14.6,2H57c7,0,12.6,5.6,12.6,12.6V57c0,7-5.6,12.6-12.6,12.6H14.6C7.6,69.7,2,64,2,57V14.6
			C2,7.6,7.6,2,14.6,2z"/>
		<path class="st1" d="M59.1,29.2c-3.1-9.3-9.4-15.2-19-17c-13.2-2.4-25.8,6.3-28.3,19.4c-0.1,0.7-0.2,1.3-0.3,2
			c0,0.1,0,0.2-0.1,0.4v4c0.2,1.6,0.5,3.2,0.9,4.8c3.1,9.4,9.4,15.1,19.1,17.1c0.8,0.2,1.5,0.2,2.3,0.3h4c1.6-0.2,3.2-0.5,4.8-0.9
			c9.4-3.1,15.1-9.4,17.2-19c0.2-0.8,0.2-1.5,0.3-2.3V34C59.9,32.4,59.6,30.8,59.1,29.2z M46.1,45.3c-0.2,0.9-0.9,1.5-1.8,1.6
			c-0.4,0-0.8,0-1.1-0.2c-3.1-1.3-6.5-1.9-9.8-2c-2.4-0.1-4.9,0-7.3,0.3c-0.4,0.1-0.9,0.1-1.3,0c-0.9-0.3-1.4-1.1-1.4-2
			c0.1-0.9,0.8-1.7,1.7-1.8c0.8-0.1,1.6-0.2,2.5-0.3c1-0.1,2-0.1,3-0.1c3.3-0.1,6.6,0.1,9.8,0.8c1.6,0.3,3.1,0.8,4.6,1.5
			C45.8,43.5,46.3,44.4,46.1,45.3L46.1,45.3z M46.6,39.9c-0.4,0-0.8,0-1.1-0.2c-2.7-1.2-5.6-1.9-8.6-2.1c-1.6-0.2-3.3-0.3-4.9-0.2
			c-2.3,0-4.6,0.1-6.9,0.4c-1.1,0.1-2-0.7-2.1-1.8c-0.1-1.1,0.7-2,1.8-2.2c1.4-0.2,2.8-0.3,4.2-0.4c2.1-0.1,4.3-0.1,6.4,0
			c4,0.1,8,1,11.7,2.5c1,0.4,1.6,1.5,1.2,2.6C48,39.3,47.4,39.8,46.6,39.9L46.6,39.9z M47.2,32.5c-1.1-0.4-2.2-0.9-3.3-1.2
			c-2.3-0.6-4.6-1.1-6.9-1.3c-2.5-0.2-5.1-0.3-7.7-0.2c-1.6,0-3.3,0.2-4.9,0.4c-1.1,0.2-2.1-0.6-2.3-1.6c-0.2-1,0.5-2,1.5-2.3
			c0.9-0.2,1.9-0.3,2.8-0.3c2.3-0.2,4.7-0.3,7-0.2c4.4,0,8.7,0.7,12.9,2.1c0.8,0.3,1.5,0.6,2.3,0.9c0.6,0.2,1.1,0.8,1.2,1.4
			C49.9,32,48.6,32.9,47.2,32.5L47.2,32.5z"/>
	</g>
</g>
</svg>
