<?xml version="1.0" encoding="utf-8"?>
<!-- Generator: Adobe Illustrator 26.1.0, SVG Export Plug-In . SVG Version: 6.00 Build 0)  -->
<svg version="1.1" id="Capa_1" xmlns="http://www.w3.org/2000/svg" xmlns:xlink="http://www.w3.org/1999/xlink" x="0px" y="0px"
	 viewBox="0 0 71.7 71.7" style="enable-background:new 0 0 71.7 71.7;" xml:space="preserve">
<style type="text/css">
	.st0{fill:#E9E9EA;stroke:#87757E;stroke-width:4;stroke-linecap:round;stroke-linejoin:round;}
	.st1{fill:#5F504A;}
</style>
<g id="Capa_2_00000155116966636165664070000017920391909314583477_">
	<g id="OBJECTS">
		<path class="st0" d="M14.6,2H57c7,0,12.6,5.6,12.6,12.6V57c0,7-5.6,12.6-12.6,12.6H14.6C7.6,69.7,2,64,2,57V14.6
			C2,7.6,7.6,2,14.6,2z"/>
		<path class="st1" d="M14.5,26c0.3-2,0.9-3.9,1.8-5.6c2.4-4,6.2-5.5,10.6-5.6c6-0.1,11.9-0.1,17.9,0c4,0.1,7.6,1.4,10.1,4.9
			c1.5,2.2,2.3,4.8,2.2,7.5c0.1,5.7,0.1,11.4,0,17.2c-0.1,4.6-1.7,8.6-6,10.9c-2,1-4.2,1.6-6.4,1.6c-5.9,0.1-11.8,0.1-17.6,0
			c-4.4-0.1-8.2-1.6-10.7-5.6c-0.9-1.8-1.5-3.7-1.8-5.6L14.5,26z M35.8,18.8c-2.9,0-5.8,0-8.8,0c-4.6,0.2-7.4,2.3-8.2,6.2
			c-0.2,0.8-0.3,1.7-0.3,2.5c0,5.5-0.1,11.1,0,16.6s2.9,8.4,8.2,8.6c6,0.2,12,0.2,18,0c4.4-0.1,7-2.3,7.9-6.1
			c0.2-0.7,0.3-1.4,0.3-2.1c0-6.3,0.4-12.6-0.2-18.9c-0.2-3.5-3-6.4-6.5-6.7C42.8,18.6,39.3,18.9,35.8,18.8L35.8,18.8z"/>
		<path class="st1" d="M46.8,35.9c0,6.1-4.9,11-11,11s-11-4.9-11-11s4.9-11,11-11C41.9,24.9,46.8,29.9,46.8,35.9z M42.7,35.8
			c0.1-3.9-3-7.1-6.9-7.1s-7.1,3-7.1,6.9s3,7.1,6.9,7.1h0.1C39.6,42.7,42.7,39.7,42.7,35.8z"/>
		<path class="st1" d="M47.1,22c1.5,0,2.7,1.2,2.7,2.6c-0.1,1.5-1.4,2.6-2.8,2.5c-1.4-0.1-2.4-1.2-2.5-2.5
			C44.5,23.2,45.7,22,47.1,22L47.1,22z"/>
	</g>
</g>
</svg>
