<?xml version="1.0" encoding="utf-8"?>
<!-- Generator: Adobe Illustrator 26.1.0, SVG Export Plug-In . SVG Version: 6.00 Build 0)  -->
<svg version="1.1" id="Capa_1" xmlns="http://www.w3.org/2000/svg" xmlns:xlink="http://www.w3.org/1999/xlink" x="0px" y="0px"
	 viewBox="0 0 71.7 71.7" style="enable-background:new 0 0 71.7 71.7;" xml:space="preserve">
<style type="text/css">
	.st0{fill:#E9E9EA;stroke:#87757E;stroke-width:4;stroke-linecap:round;stroke-linejoin:round;}
	.st1{fill:#5F504A;}
</style>
<g id="Capa_2_00000101078870919685100530000007154050769169994660_">
	<g id="OBJECTS">
		<path class="st0" d="M14.6,2H57c7,0,12.6,5.6,12.6,12.6V57c0,7-5.6,12.6-12.6,12.6H14.6C7.6,69.7,2,64,2,57V14.6
			C2,7.6,7.6,2,14.6,2z"/>
		<path class="st1" d="M43.4,21.2h3.8V13h-5.7c-8,0-11.9,4.8-11.9,11.6V31h-6.3v7.8h6.3v19.8H39V38.8h6.3l1.8-7.8H39v-5.3
			C39,23.5,40.2,21.2,43.4,21.2z"/>
	</g>
</g>
</svg>
